HIERARCHY
ROOT Hips
{
	OFFSET -0.001795 -0.223333 0.028219
	CHANNELS 6 Xposition Yposition Zposition Zrotation Yrotation Xrotation 
	JOINT LeftUpLeg
	{
		OFFSET 0.069520 -0.091406 -0.006815
		CHANNELS 3 Zrotation Yrotation Xrotation
		JOINT LeftLeg
		{
			OFFSET 0.034277 -0.375199 -0.004496
			CHANNELS 3 Zrotation Yrotation Xrotation
			JOINT LeftFoot
			{
				OFFSET -0.013596 -0.397961 -0.043693
				CHANNELS 3 Zrotation Yrotation Xrotation
				JOINT LeftToe
				{
					OFFSET 0.026358 -0.055791 0.119288
					CHANNELS 3 Zrotation Yrotation Xrotation
					End Site
					{
						OFFSET 0.000000 0.000000 0.000000
					}
				}
			}
		}
	}
	JOINT RightUpLeg
	{
		OFFSET -0.067670 -0.090522 -0.004320
		CHANNELS 3 Zrotation Yrotation Xrotation
		JOINT RightLeg
		{
			OFFSET -0.038290 -0.382569 -0.008850
			CHANNELS 3 Zrotation Yrotation Xrotation
			JOINT RightFoot
			{
				OFFSET 0.015774 -0.398415 -0.042312
				CHANNELS 3 Zrotation Yrotation Xrotation
				JOINT RightToe
				{
					OFFSET -0.025372 -0.048144 0.123348
					CHANNELS 3 Zrotation Yrotation Xrotation
					End Site
					{
						OFFSET 0.000000 0.000000 0.000000
					}
				}
			}
		}
	}
	JOINT Spine
	{
		OFFSET -0.002533 0.108963 -0.026696
		CHANNELS 3 Zrotation Yrotation Xrotation
		JOINT Spine1
		{
			OFFSET 0.005487 0.135180 0.001092
			CHANNELS 3 Zrotation Yrotation Xrotation
			JOINT Spine2
			{
				OFFSET 0.001457 0.052922 0.025425
				CHANNELS 3 Zrotation Yrotation Xrotation
				JOINT Neck
				{
					OFFSET -0.002778 0.213870 -0.042857
					CHANNELS 3 Zrotation Yrotation Xrotation
					JOINT Head
					{
						OFFSET 0.005152 0.064970 0.051349
						CHANNELS 3 Zrotation Yrotation Xrotation
						End Site
						{
							OFFSET 0.000000 0.000000 0.000000
						}
					}
				}
				JOINT LeftShoulder
				{
					OFFSET 0.078845 0.121749 -0.034090
					CHANNELS 3 Zrotation Yrotation Xrotation
					JOINT LeftArm
					{
						OFFSET 0.090977 0.030469 -0.008868
						CHANNELS 3 Zrotation Yrotation Xrotation
						JOINT LeftForeArm
						{
							OFFSET 0.259612 -0.012772 -0.027456
							CHANNELS 3 Zrotation Yrotation Xrotation
							JOINT LeftHand
							{
								OFFSET 0.249234 0.008986 -0.001171
								CHANNELS 3 Zrotation Yrotation Xrotation
								End Site
								{
									OFFSET 0.000000 0.000000 0.000000
								}
							}
						}
					}
				}
				JOINT RightShoulder
				{
					OFFSET -0.081759 0.118833 -0.038615
					CHANNELS 3 Zrotation Yrotation Xrotation
					JOINT RightArm
					{
						OFFSET -0.096012 0.032551 -0.009143
						CHANNELS 3 Zrotation Yrotation Xrotation
						JOINT RightForeArm
						{
							OFFSET -0.253742 -0.013329 -0.021401
							CHANNELS 3 Zrotation Yrotation Xrotation
							JOINT RightHand
							{
								OFFSET -0.255298 0.007772 -0.005559
								CHANNELS 3 Zrotation Yrotation Xrotation
								End Site
								{
									OFFSET 0.000000 0.000000 0.000000
								}
							}
						}
					}
				}
			}
		}
	}
}
MOTION
Frames: 18
Frame Time: 0.050000
-0.131042 0.945737 0.398475 -3.537175 9.019624 4.646668 4.103133 -0.309945 -2.665909 1.753967 -0.079037 -1.667875 -1.791131 -0.440403 5.481724 0.000000 0.000000 0.000000 0.585313 -0.020149 0.136101 4.900170 -0.617491 -7.229480 -2.344183 -8.338700 12.041587 0.000000 0.000000 0.000000 -2.370893 0.069407 -1.026576 -7.227044 3.296177 -1.527912 4.338917 7.884245 6.859490 2.005258 0.655738 -12.477133 0.000000 0.000000 0.000000 -23.320139 -1.605613 -5.067457 -45.463270 2.029907 -5.193938 -7.897208 -24.848394 2.044789 0.000000 0.000000 0.000000 17.863735 14.654850 9.484284 29.277359 35.357091 4.078082 -18.543109 39.515897 -3.886951 0.000000 0.000000 0.000000 
-0.130996 0.946036 0.397588 -3.478158 9.178107 4.675366 3.812381 -0.317869 -2.923738 2.162040 -0.124335 -1.407847 -1.863439 -0.534016 5.533940 0.000000 0.000000 0.000000 0.390914 -0.011737 0.102051 5.136434 -0.636088 -7.298639 -2.390171 -8.434443 12.205261 0.000000 0.000000 0.000000 -2.285787 0.065025 -0.840970 -7.139093 3.256467 -1.504392 4.316324 8.035327 6.737144 1.909544 0.713275 -12.315028 0.000000 0.000000 0.000000 -23.416994 -1.463238 -5.248846 -45.589643 2.031469 -5.181166 -7.895241 -25.010951 2.039397 0.000000 0.000000 0.000000 18.005958 14.636608 9.566022 29.299498 35.469572 4.104448 -19.215480 39.136074 -4.052116 0.000000 0.000000 0.000000 
-0.131005 0.946260 0.396827 -3.321917 9.422292 4.747377 3.579938 -0.322404 -3.064199 2.302809 -0.133829 -1.427448 -2.013868 -0.721323 5.672774 0.000000 0.000000 0.000000 0.141228 -0.015992 0.193018 5.311110 -0.652696 -7.621564 -2.466487 -8.583151 12.400652 0.000000 0.000000 0.000000 -2.260613 0.061224 -0.643154 -7.213152 3.291822 -1.213181 4.327302 7.961543 6.485210 1.803669 0.775407 -12.277892 0.000000 0.000000 0.000000 -23.199115 -1.715115 -5.070287 -45.932139 1.767791 -5.122410 -7.688379 -25.106343 1.994403 0.000000 0.000000 0.000000 17.989376 15.002319 9.772260 29.230382 35.465994 4.104884 -20.211373 39.274385 -4.395892 0.000000 0.000000 0.000000 
-0.131127 0.946468 0.396101 -3.284422 9.413120 4.683211 3.345422 -0.320495 -3.127846 2.643980 -0.171075 -1.263894 -2.014247 -0.698512 5.710709 0.000000 0.000000 0.000000 -0.035860 -0.015851 0.226187 5.551688 -0.668556 -7.630024 -2.440428 -8.548899 12.489346 0.000000 0.000000 0.000000 -2.198328 0.053582 -0.321929 -7.311793 3.333514 -1.311414 4.451402 7.906708 6.502304 1.743187 0.841100 -12.521118 0.000000 0.000000 0.000000 -22.927154 -1.828459 -4.911369 -46.349201 1.618517 -5.159564 -7.534850 -25.210168 1.970206 0.000000 0.000000 0.000000 17.719671 15.206667 9.803302 29.164125 35.759857 4.183945 -20.473808 40.041901 -4.581507 0.000000 0.000000 0.000000 
-0.131328 0.946725 0.395306 -3.352348 9.370636 4.593334 3.288877 -0.313419 -3.043430 2.876840 -0.186166 -1.343453 -2.016146 -0.654344 5.796931 0.000000 0.000000 0.000000 -0.006742 -0.024912 0.302897 5.630406 -0.673523 -7.712520 -2.390088 -8.479729 12.631684 0.000000 0.000000 0.000000 -2.269325 0.049622 -0.090309 -7.304185 3.331583 -1.324198 4.584556 7.891423 6.469070 1.649666 0.924875 -12.735649 0.000000 0.000000 0.000000 -22.747112 -2.039757 -4.733534 -46.552973 1.570668 -5.183847 -7.602995 -25.075127 1.978787 0.000000 0.000000 0.000000 17.514365 15.795487 10.070444 28.747846 35.695523 4.085311 -20.432470 41.520973 -4.773381 0.000000 0.000000 0.000000 
-0.131555 0.946803 0.394371 -3.342045 9.374661 4.596855 3.168138 -0.314262 -3.098310 3.081513 -0.201910 -1.365013 -2.028251 -0.645705 5.849474 0.000000 0.000000 0.000000 -0.000215 -0.007292 0.138426 5.606893 -0.671877 -7.537995 -2.411878 -8.515120 12.607182 0.000000 0.000000 0.000000 -2.314430 0.046771 0.098436 -7.233714 3.299325 -1.379200 4.618707 7.781423 6.469393 1.830257 0.795677 -12.716490 0.000000 0.000000 0.000000 -22.547733 -2.250748 -4.531758 -46.698041 1.458570 -5.185847 -7.662871 -24.947773 1.990335 0.000000 0.000000 0.000000 17.202928 16.228525 10.206740 27.877225 35.923610 3.956588 -19.736196 42.871762 -4.724171 0.000000 0.000000 0.000000 
-0.131740 0.946559 0.393328 -3.498355 9.341231 4.433612 3.202824 -0.300940 -2.885581 3.320830 -0.208915 -1.579310 -1.992938 -0.621982 5.775209 0.000000 0.000000 0.000000 0.132389 -0.006600 0.105243 5.667473 -0.675748 -7.333805 -2.405861 -8.495724 12.523864 0.000000 0.000000 0.000000 -2.294329 0.039931 0.365947 -7.357391 3.358340 -1.240756 4.705969 7.760892 6.292052 1.945759 0.723464 -12.792827 0.000000 0.000000 0.000000 -22.558956 -2.592991 -4.328287 -46.581275 1.425506 -5.143959 -7.738799 -24.670877 1.994016 0.000000 0.000000 0.000000 16.881233 16.833630 10.438463 26.932051 36.265606 3.846456 -18.942102 43.571152 -4.559336 0.000000 0.000000 0.000000 
-0.131890 0.946221 0.392322 -3.643353 9.267452 4.196274 3.325103 -0.291296 -2.711685 3.371534 -0.215204 -1.556344 -1.917667 -0.577470 5.609263 0.000000 0.000000 0.000000 0.313051 -0.018837 0.180649 5.613321 -0.671456 -7.170243 -2.387055 -8.449461 12.396296 0.000000 0.000000 0.000000 -2.370013 0.035408 0.587742 -7.315258 3.344170 -1.202239 4.782733 7.761025 6.256727 2.431575 0.386854 -12.664699 0.000000 0.000000 0.000000 -22.637707 -2.680159 -4.285457 -46.454823 1.537927 -5.161784 -7.697961 -24.473686 1.975289 0.000000 0.000000 0.000000 16.664434 17.263701 10.605752 26.041443 36.730656 3.752493 -17.841690 43.985783 -4.230055 0.000000 0.000000 0.000000 
-0.132046 0.946016 0.391363 -3.756796 9.217371 4.025881 3.310955 -0.281335 -2.572847 3.610036 -0.232911 -1.597133 -1.869172 -0.538537 5.518731 0.000000 0.000000 0.000000 0.376516 -0.034625 0.309523 5.713262 -0.678066 -7.215663 -2.348234 -8.383327 12.397668 0.000000 0.000000 0.000000 -2.385189 0.034311 0.595289 -7.376103 3.376818 -1.056696 4.904492 7.701498 6.244253 2.757742 0.170115 -12.698775 0.000000 0.000000 0.000000 -22.752719 -2.685022 -4.271446 -46.450215 1.674166 -5.217852 -7.653059 -24.219919 1.956314 0.000000 0.000000 0.000000 16.456876 17.779735 10.801946 25.463754 37.264349 3.749673 -17.255875 43.515221 -4.006863 0.000000 0.000000 0.000000 
-0.132266 0.945730 0.390442 -3.886083 8.994485 3.802598 3.429284 -0.264657 -2.281532 3.624820 -0.225894 -1.745869 -1.750695 -0.382448 5.423329 0.000000 0.000000 0.000000 0.456499 -0.050005 0.428452 5.796010 -0.681023 -7.151503 -2.243882 -8.198315 12.317435 0.000000 0.000000 0.000000 -2.392906 0.031415 0.667744 -7.470106 3.424143 -1.026299 5.029880 7.762148 6.427091 3.171950 -0.113952 -12.627373 0.000000 0.000000 0.000000 -22.844359 -2.811051 -4.198911 -46.468672 1.774652 -5.272467 -7.369468 -24.165992 1.900700 0.000000 0.000000 0.000000 16.339038 18.168526 10.967411 25.047261 37.957243 3.798970 -17.033536 43.056751 -3.911138 0.000000 0.000000 0.000000 
-0.132564 0.945523 0.389557 -3.931580 8.854228 3.766387 3.371074 -0.266370 -2.353051 3.813782 -0.250873 -1.616881 -1.654453 -0.258872 5.333848 0.000000 0.000000 0.000000 0.458331 -0.047772 0.406688 5.880871 -0.684674 -7.171173 -2.179918 -8.087907 12.286504 0.000000 0.000000 0.000000 -2.375377 0.033565 0.535523 -7.586381 3.477001 -1.037754 5.168152 7.860553 6.533785 3.421398 -0.287647 -12.551846 0.000000 0.000000 0.000000 -22.926829 -2.606388 -4.331506 -46.492289 2.064936 -5.387827 -7.356676 -24.168361 1.896914 0.000000 0.000000 0.000000 16.241750 18.307342 11.021831 25.104899 38.766690 3.993225 -17.644209 42.455432 -4.073477 0.000000 0.000000 0.000000 
-0.132911 0.945335 0.388671 -3.961135 8.708958 3.594670 3.467037 -0.261340 -2.260570 3.702047 -0.249598 -1.509730 -1.572334 -0.161354 5.245669 0.000000 0.000000 0.000000 0.562272 -0.058804 0.481825 5.758388 -0.674512 -7.093464 -2.131895 -7.995083 12.180186 0.000000 0.000000 0.000000 -2.478425 0.033296 0.598483 -7.586641 3.483800 -0.913814 5.382308 7.921180 6.570714 3.954338 -0.659495 -12.444580 0.000000 0.000000 0.000000 -23.049185 -2.473366 -4.412223 -46.739486 2.297942 -5.521918 -7.123047 -24.385175 1.866168 0.000000 0.000000 0.000000 16.016986 18.548743 11.075580 24.994569 39.539549 4.154862 -18.214425 42.155597 -4.261361 0.000000 0.000000 0.000000 
-0.133294 0.945321 0.387806 -4.030835 8.631002 3.542056 3.534549 -0.267801 -2.359977 3.734938 -0.264928 -1.328167 -1.518370 -0.088953 5.200215 0.000000 0.000000 0.000000 0.582725 -0.069172 0.568174 5.876573 -0.681078 -7.275360 -2.066556 -7.897145 12.280274 0.000000 0.000000 0.000000 -2.389364 0.031312 0.587948 -7.670739 3.521326 -0.954202 5.551544 7.942019 6.574422 4.304678 -0.897131 -12.435278 0.000000 0.000000 0.000000 -23.101314 -2.201734 -4.554878 -46.864356 2.447199 -5.606586 -7.306849 -24.626617 1.922825 0.000000 0.000000 0.000000 15.849268 18.639591 11.068473 25.170305 40.117374 4.346330 -18.338870 42.229959 -4.313795 0.000000 0.000000 0.000000 
-0.133699 0.945302 0.386966 -4.102733 8.690916 3.296890 3.437948 -0.262578 -2.336559 4.087522 -0.316120 -1.035627 -1.513539 -0.125910 5.103441 0.000000 0.000000 0.000000 0.667238 -0.102551 0.843756 5.906999 -0.684773 -7.404469 -2.065476 -7.900698 12.340533 0.000000 0.000000 0.000000 -2.493522 0.026335 0.844643 -7.674064 3.523075 -1.064853 5.826811 7.919363 6.663261 4.686209 -1.119283 -12.621948 0.000000 0.000000 0.000000 -23.083690 -2.082323 -4.602235 -47.280550 2.598676 -5.751328 -7.148648 -25.012970 1.915847 0.000000 0.000000 0.000000 15.646313 18.711638 11.046597 25.481144 40.489278 4.529606 -18.437254 42.526839 -4.378807 0.000000 0.000000 0.000000 
-0.134135 0.945486 0.386144 -4.076795 8.756556 3.205164 3.401177 -0.266112 -2.420941 4.147494 -0.335986 -0.828818 -1.552500 -0.173855 5.141249 0.000000 0.000000 0.000000 0.689523 -0.120539 0.996123 5.864337 -0.682905 -7.587801 -2.072145 -7.926241 12.454124 0.000000 0.000000 0.000000 -2.435633 0.023096 0.894791 -7.684366 3.527495 -1.104750 5.933468 7.999200 6.740585 4.681377 -1.085662 -12.744862 0.000000 0.000000 0.000000 -22.980538 -2.054100 -4.620529 -47.627560 2.724137 -5.866417 -7.195106 -25.201529 1.931998 0.000000 0.000000 0.000000 15.683601 18.819494 11.142799 25.620359 40.393508 4.535341 -18.235515 43.106008 -4.356689 0.000000 0.000000 0.000000 
-0.134585 0.945685 0.385368 -4.037195 8.966347 3.371197 3.342912 -0.289656 -2.806127 4.244491 -0.357513 -0.633106 -1.653573 -0.308588 5.219106 0.000000 0.000000 0.000000 0.799254 -0.115191 0.925701 5.664710 -0.672935 -7.866537 -2.156071 -8.086708 12.619512 0.000000 0.000000 0.000000 -2.560629 0.029782 0.757373 -7.605118 3.487661 -1.138360 5.954710 8.091521 6.624112 4.657085 -1.039854 -12.810966 0.000000 0.000000 0.000000 -22.657485 -2.140029 -4.557799 -48.114385 2.626765 -5.906240 -7.133590 -25.332253 1.911102 0.000000 0.000000 0.000000 15.505917 18.639532 11.048359 26.181539 39.983797 4.613675 -17.327843 44.322677 -4.104664 0.000000 0.000000 0.000000 
-0.135043 0.945738 0.384685 -4.017110 9.174277 3.473064 3.273023 -0.304150 -3.042771 4.403002 -0.375623 -0.568592 -1.749993 -0.451167 5.265845 0.000000 0.000000 0.000000 0.819954 -0.125985 1.014856 5.664693 -0.676597 -8.294896 -2.211934 -8.200913 12.817979 0.000000 0.000000 0.000000 -2.673594 0.034292 0.679153 -7.611385 3.491685 -0.966997 6.034705 8.098509 6.455703 4.689858 -1.054782 -12.804204 0.000000 0.000000 0.000000 -22.639007 -2.228303 -4.532266 -48.256437 2.420184 -5.830136 -7.014273 -25.453758 1.886172 0.000000 0.000000 0.000000 15.471709 18.612244 11.040673 26.585856 39.486294 4.621190 -16.339102 45.548060 -3.815796 0.000000 0.000000 0.000000 
-0.135491 0.945723 0.384061 -3.913746 9.495429 3.578371 3.185238 -0.311274 -3.151592 4.449107 -0.364542 -0.747243 -1.925126 -0.704707 5.365822 0.000000 0.000000 0.000000 0.866564 -0.123465 0.985367 5.472479 -0.670716 -8.480989 -2.366017 -8.460899 12.867267 0.000000 0.000000 0.000000 -2.883597 0.039157 0.685746 -7.455718 3.420064 -0.900233 5.955834 8.250443 6.342724 4.684791 -0.981030 -13.032516 0.000000 0.000000 0.000000 -22.428480 -2.330974 -4.530639 -48.676938 2.133394 -5.764458 -6.862716 -25.368902 1.822716 0.000000 0.000000 0.000000 15.565506 18.525390 11.100030 26.829498 39.018816 4.568573 -15.356959 46.618447 -3.474851 0.000000 0.000000 0.000000 
